# xmcd CD database file
#
# Track frame offsets:
#	225
#	14234
#	27451
#	42007
#	53007
#	67611
#	82904
#	94226
#	109261
#	120008
#	132086
#	157830
#	169874
#	187853
#
# Disc length: 2649 seconds
#
# Revision: 0
# Processed by: cddbd v1.4PL0 Copyright (c) Steve Scherf et al.
# Submitted via: CDex 1.40Release
#
DISCID=a10a560e
DTITLE=Johnny and the Headhunters - Truckin' the Blues
DYEAR=1996
DGENRE=Blues
TTITLE0=Bad Luck
TTITLE1=Look what cha  done
TTITLE2=Got love if you want it
TTITLE3=Some other day
TTITLE4=Easy baby
TTITLE5=Just a lover
TTITLE6=Done got over it
TTITLE7=Country boy
TTITLE8=Up the line
TTITLE9=I'm trying
TTITLE10=Come in this house
TTITLE11=Tore up
TTITLE12=Real mother for ya
TTITLE13=High rise
EXTD=YEAR: 1996 ID3G: 0
EXTT0=
EXTT1=
EXTT2=
EXTT3=
EXTT4=
EXTT5=
EXTT6=
EXTT7=
EXTT8=
EXTT9=
EXTT10=
EXTT11=
EXTT12=
EXTT13=
PLAYORDER=
